<?xml version="1.0" encoding="UTF-8" standalone="no"?>
<!DOCTYPE svg PUBLIC "-//W3C//DTD SVG 1.1//EN" "http://www.w3.org/Graphics/SVG/1.1/DTD/svg11.dtd">
<svg width="100%" height="100%" viewBox="0 0 1080 1080" version="1.1" xmlns="http://www.w3.org/2000/svg" xmlns:xlink="http://www.w3.org/1999/xlink" xml:space="preserve" xmlns:serif="http://www.serif.com/" style="fill-rule:evenodd;clip-rule:evenodd;stroke-linejoin:round;stroke-miterlimit:6;">
    <g id="fill" transform="matrix(1.02127,0,0,1.02127,-8.3253,-22.9762)">
        <path id="skin_fill" d="M991.51,1080L990.066,720.053C990.066,720.053 870.199,650.609 685.344,695.379C500.488,740.149 330.509,860.318 309.823,879.385C299.83,888.596 269.911,786.06 264.735,744.061C259.559,702.061 266.943,630.798 283.812,603.275C305.202,552.379 379.641,467.221 457.724,466.038C535.807,464.855 661.734,496.94 835.882,610.515L832.569,533.852L983.53,509.717L782.407,407.973C782.407,407.973 726.566,367.195 719.941,354.221C713.316,341.248 680.144,260.314 680.144,260.314L216.497,257.525L231.678,476.319C231.678,476.319 160.105,441.996 128.122,472.283C96.14,502.57 92.021,595.61 156.713,601.183C221.405,606.756 221.163,592.703 221.163,592.703L222.399,1080L991.51,1080Z" style="fill:rgb(247,190,170);"/>
        <g id="mouth_fill">
            <path id="mouth_bottom_fill" d="M488.627,764.704C425.422,798.188 364.647,835.489 308.068,879.385C285.571,839.164 271.142,795.62 264.735,748.774C264.735,748.774 318.279,701.765 376.681,705.768C435.542,709.804 489.4,760.836 488.627,764.704Z" style="fill:rgb(233,126,146);"/>
            <path id="mouth_upper_fill" d="M609.397,714.701L529.894,625.253L274.874,625.584C262.68,663.745 258.947,704.578 264.735,748.419C264.735,748.419 319.913,704.298 377.278,706.893C434.604,709.486 489.132,760.214 488.723,764.704L613.656,714.701" style="fill:rgb(150,58,81);"/>
            <path id="teeth_fill" d="M276.119,625.584L768.397,625.584L769.462,571.129C769.462,571.129 639.137,482.925 476.65,467.137C367.799,456.561 262.166,606.462 276.119,625.584Z" style="fill:white;"/>
        </g>
        <g id="eye_fill">
            <g id="eye_2_fill">
                <path id="eye_2_1_fill" d="M352.825,351.105L352.163,315.099L509.409,311.129C509.409,311.129 504.17,352.544 488.815,354.221C488.815,354.221 352.048,346.963 352.825,351.105Z" style="fill:white;"/>
                <path id="eye_2_fill1" serif:id="eye_2_fill" d="M530.444,347.479C522.469,337.712 514.757,326.37 507.729,310.922L570.195,307.372L572.68,343.574L530.444,347.479Z" style="fill:rgb(42,115,132);"/>
            </g>
            <g id="eye_1_fill">
                <path id="eye_1_1_fill" d="M573.312,343.057L570.348,311.129L693.191,308.985C693.191,308.985 675.651,343.513 673.049,344.524C670.448,345.536 573.312,343.057 573.312,343.057Z" style="fill:white;"/>
                <path id="eye_1_fill1" serif:id="eye_1_fill" d="M352.628,318.206L353.693,348.543L307.553,351.738C307.553,351.738 292.646,325.49 289.097,318.206C285.548,310.922 352.628,318.206 352.628,318.206Z" style="fill:rgb(42,115,132);"/>
            </g>
        </g>
        <path id="hair_fill" d="M216.494,259.887L231.809,477.596C231.809,477.596 198.89,461.944 187.533,461.66C176.175,461.376 69.041,370.882 82.905,297.975C96.77,225.068 132.854,231.693 177.446,231.693C196.718,231.693 137.677,108.812 220.492,68.144C303.307,27.476 392.408,35.24 450.083,46.331C507.757,57.422 676.346,158.723 709.619,173.511C742.893,188.3 784.301,203.828 787.998,185.342C791.695,166.857 785.78,150.589 779.125,143.935C772.47,137.28 846.412,155.765 858.983,165.378C871.553,174.99 900.018,209.482 868.595,237.841C836.41,266.888 681.404,266.388 677.824,260.024L216.494,259.887Z" style="fill:rgb(44,49,53);"/>
    </g>
    <g id="contour" transform="matrix(1.02127,0,0,1.02127,-8.3253,-22.9762)">
        <g id="hair">
            <path id="hair_inner_4" d="M221.546,347.479C209.125,353.437 143.351,393.24 129.236,410.742" style="fill:rgb(64,75,77);fill-opacity:0;stroke:rgb(64,71,76);stroke-width:7.82px;"/>
            <path id="hair_inner_3" d="M98.467,364.447C98.467,364.447 173.274,280.606 218.158,291.615" style="fill:rgb(64,75,77);fill-opacity:0;stroke:rgb(64,71,76);stroke-width:7.82px;"/>
            <path id="hair_inner_2" d="M417.876,45.17C394.163,63.519 281.832,149.507 290.019,259.127" style="fill:rgb(64,75,77);fill-opacity:0;stroke:rgb(64,71,76);stroke-width:7.82px;"/>
            <path id="hair_inner_1" d="M344.501,259.127C370.981,202.007 466.13,107.725 593.765,112.335" style="fill:rgb(64,75,77);fill-opacity:0;stroke:rgb(64,71,76);stroke-width:7.82px;"/>
            <path id="hair_bottom" d="M672.01,259.666L216.409,258.609L232.116,476.319C232.116,476.319 210.398,461.435 172.089,462.063" style="fill-opacity:0;stroke:black;stroke-width:5.69px;stroke-linecap:square;stroke-linejoin:miter;"/>
        </g>
        <g id="face">
            <g id="chin">
                <path id="chin_2" d="M778.537,1014.22C778.537,1014.22 859.177,1004.18 825.485,1070.64" style="fill:none;stroke:black;stroke-width:7.82px;stroke-linecap:round;"/>
                <path id="chin_1" d="M749.404,1070.64C749.404,1070.64 765.583,1008.34 674.789,1012.12" style="fill:none;stroke:black;stroke-width:7.82px;stroke-linecap:round;"/>
            </g>
            <g id="mouth">
                <path id="bottom" d="M763.261,624.923L273.52,625.584" style="fill:none;stroke:black;stroke-width:5.69px;stroke-linecap:square;stroke-linejoin:miter;"/>
                <path id="upper" d="M488.627,764.704C472.307,737.505 363.797,656.843 264.735,748.061" style="fill-opacity:0;stroke:black;stroke-width:5.69px;stroke-linecap:square;stroke-linejoin:miter;"/>
                <path id="teeth_1" d="M392.028,488.768L392.028,620.46" style="fill:none;stroke:black;stroke-width:5.69px;stroke-linecap:square;stroke-linejoin:miter;"/>
                <path id="teeth_2" d="M515.279,470.979L516.049,620.46" style="fill:none;stroke:black;stroke-width:5.69px;stroke-linecap:square;stroke-linejoin:miter;"/>
                <path id="teeth_3" d="M638.529,508.394L638.912,620.46" style="fill:none;stroke:black;stroke-width:5.69px;stroke-linecap:square;stroke-linejoin:miter;"/>
                <g id="mouth_outer">
                    <path d="M773.042,572.442L771.333,631.133L540,634.966C566.175,662.227 579.402,676.54 616.899,715.123" style="fill:rgb(255,0,0);fill-opacity:0;"/>
                    <path d="M764.568,572.195L762.838,622.439C762.838,622.439 516.862,625.332 516.862,625.332L532.775,641.904L609.293,722.514L624.505,707.731L563.175,644.478C621.672,643.199 771.479,639.921 771.479,639.921L779.874,639.782L780.119,631.389L781.516,572.689L764.568,572.195Z"/>
                </g>
            </g>
            <path id="nose" d="M782.625,462.577C782.625,462.577 765.725,440.771 739.012,440.771C712.299,440.771 690.71,465.303 693.191,507.008L770.631,498.013" style="fill-opacity:0;stroke:black;stroke-width:5.69px;stroke-linecap:square;stroke-linejoin:miter;"/>
            <g id="eye">
                <g id="eye_inner">
                    <path id="eye_inner_2" d="M571.289,313.677L572.598,342.809" style="fill:none;stroke:black;stroke-width:5.88px;stroke-linecap:square;stroke-linejoin:miter;"/>
                    <path id="eye_inner_1" d="M352.989,316.913L353.129,347.895" style="fill:none;stroke:black;stroke-width:5.88px;stroke-linecap:square;stroke-linejoin:miter;"/>
                    <g id="ear_inner_0">
                        <path d="M157.747,491.471C157.747,491.471 233.862,482.801 234.07,540C234.173,568.399 198.029,566.885 198.029,566.885C198.029,566.885 155.325,567.934 155.93,540C156.536,512.066 188.337,527.209 192.577,531.147" style="fill-opacity:0;"/>
                        <path d="M158.08,494.39C158.08,494.39 193.811,489.946 215.674,506.035C224.993,512.894 231.676,523.575 231.837,540.008C231.924,549.853 227.235,555.795 221.357,559.351C211.347,565.407 198.114,564.859 198.114,564.859C198.069,564.858 198.024,564.857 197.979,564.858C197.979,564.858 178.988,565.365 167.057,557.179C161.777,553.556 157.98,548.125 158.221,540.05C158.489,532.011 161.496,528.066 165.839,526.705C169.734,525.485 174.435,526.221 178.704,527.514C184.289,529.206 189.167,531.948 190.578,533.299C191.766,534.403 193.627,534.334 194.73,533.146C195.833,531.958 195.764,530.097 194.576,528.994C192.833,527.424 186.965,524.129 180.205,522.291C174.884,520.844 169.049,520.292 164.274,521.921C158.406,523.924 153.75,528.994 153.639,539.95C153.506,549.792 158.211,556.323 164.69,560.668C177.255,569.095 196.808,568.931 198.019,568.913C199.21,568.95 217.154,569.33 227.941,559.738C232.798,555.42 236.286,549.15 236.303,539.992C236.349,521.712 228.911,509.818 218.647,502.051C195.55,484.571 157.415,488.553 157.415,488.553C155.804,488.736 154.645,490.193 154.829,491.804C155.012,493.414 156.469,494.573 158.08,494.39Z"/>
                    </g>
                </g>
                <g id="eye_bottom">
                    <path id="eye_bottom_2" d="M672.867,343.043C599.785,342.304 563.027,343.26 530.441,346.738" style="fill-opacity:0;stroke:black;stroke-width:5.88px;stroke-linecap:square;stroke-linejoin:miter;"/>
                    <g id="eye_bottom_1" transform="matrix(1,0,0,1,-181.658,7.10763)">
                        <path d="M670.473,347.114C629.751,340.754 549.114,342.425 491.481,343.997" style="fill-opacity:0;stroke:black;stroke-width:5.88px;stroke-linecap:square;stroke-linejoin:miter;"/>
                    </g>
                </g>
                <path id="eye_bottom_curve" d="M693.191,308.985C693.191,308.985 673.792,375.522 602.149,381.764C536.457,387.489 510.016,314.982 510.016,314.982C510.016,314.982 495.024,392.122 402.892,393.213C310.759,394.303 289.226,318.206 289.226,318.206" style="fill-opacity:0;stroke:black;stroke-width:5.69px;stroke-linecap:square;stroke-linejoin:miter;"/>
                <path id="eye_brow" d="M726.899,277.744L264.735,283.281L271.007,318.206L727.751,309.262L726.899,277.744Z" style="stroke:black;stroke-width:5.69px;stroke-linecap:square;stroke-linejoin:miter;"/>
            </g>
            <g id="outer">
                <path d="M221.966,1080L219.57,592.758C219.57,592.758 102.179,624.168 102.179,540C102.179,455.832 166.864,454.634 166.864,454.634C166.864,454.634 79.42,392.345 83.013,302.505C86.607,212.665 182.436,229.435 182.436,229.435C182.436,229.435 95.193,-16.966 448.363,47.359C559.359,67.575 691.669,191.167 772.985,194.697C807.892,196.212 778.883,144.778 778.883,144.778C778.883,144.778 885.108,149.929 884.127,213.223C883.145,276.516 681.98,264.741 681.98,264.741C681.98,264.741 715.344,383.968 800.226,418.313C818.819,425.836 984.455,509.206 984.455,509.206L831.741,534.965L838.487,612.855C838.487,612.855 623.434,467.757 477.862,467.501C331.361,467.242 184.492,642.143 307.362,879.644C509.754,716.237 830.509,616.128 991.814,721.757L992.136,1080" style="fill-opacity:0;"/>
                <path d="M232.624,1090.55L230.109,578.959L216.829,582.512C216.829,582.512 166.787,596.428 134.981,580.471C121.941,573.929 112.785,561.558 112.785,540C112.785,516.704 118.062,500.452 125.718,489.211C141.578,465.921 167.06,465.238 167.06,465.238L199.196,464.643L173.017,445.996C173.017,445.996 139.501,422.031 115.856,382.683C102.556,360.55 92.316,333.474 93.5,302.924C94.429,275.22 105.114,258.965 119.086,249.817C145.216,232.708 180.786,238.867 180.786,238.867L196.934,241.692L191.462,226.239C191.462,226.239 157.843,134.989 215.866,81.948C251.333,49.526 319.768,32.176 446.987,54.915C530.125,69.941 625.256,143.582 701.693,180.223C727.807,192.74 751.869,201.026 772.673,201.907C780.308,202.23 785.659,200.42 789.384,197.66C794.531,193.848 797.049,187.994 797.349,181.032C797.73,172.192 794.109,161.263 790.708,153.1C806.267,155.111 833.593,160.368 853.702,173.647C867.033,182.45 877.104,194.973 876.786,213.109C876.621,222.493 870.463,229.476 861.283,235.128C849.257,242.531 832.218,247.462 813.516,250.878C755.779,261.426 682.436,256.95 682.436,256.95L671.518,256.311L674.465,266.844C674.465,266.844 691.193,327.105 731.228,375.362C748.672,396.389 770.514,415.099 797.142,425.935C801.764,427.811 815.595,434.47 833.711,443.351C850.902,451.78 871.852,462.281 892.572,472.502C918.236,485.161 943.474,497.534 960.39,505.813C960.391,505.813 824.896,529.667 824.896,529.667L825.402,535.514L831.596,601.542C813.022,589.829 770.594,563.939 718.288,537.599C691.471,524.095 662.101,510.377 631.937,498.525C579.683,477.994 525.142,462.902 477.87,462.855C391.783,462.748 305.521,521.746 271.784,618.17C247.083,688.77 250.489,779.535 303.349,881.72L305.893,886.638L310.2,883.16C343.772,856.25 380.502,830.94 419.39,808.338C509.631,755.891 610.899,717.575 706.362,699.152C812.662,678.638 912.17,683.26 982.198,726.998C982.198,726.999 981.53,1080.01 981.53,1080.01L981.54,1090.62L1002.75,1090.6L1002.74,1079.99L1001.42,716.562L997.077,713.721C923.057,665.61 816.514,658.614 702.978,682.299C606.375,702.451 505.088,745.134 414.311,799.749C377.028,822.179 341.419,846.528 308.855,872.631C259.813,775.213 256.622,688.701 280.293,621.15C312.687,528.704 395.305,471.958 477.854,472.146C524.084,472.264 577.378,487.216 628.441,507.397C658.29,519.193 687.409,532.724 713.863,546.303C783.689,582.145 835.241,617.667 835.241,617.667L845.319,624.466L844.27,612.354L838.548,540.313C866.37,535.834 985.706,516.622 985.706,516.622L1008.33,512.805L987.836,502.488C987.836,502.488 942.356,478.889 896.305,455.78C854.492,434.798 812.19,414.274 803.31,410.691C779.185,400.986 759.476,383.993 743.618,365.04C715.456,331.38 699.334,291.455 692.856,272.974C720.088,273.775 790.506,274.266 838.575,260.491C869.646,251.586 891.163,235.939 891.467,213.337C891.786,189.637 879.104,173.021 861.651,161.57C829,140.149 779.229,137.636 779.229,137.636L766.291,137.008L772.655,148.29C772.655,148.29 783.58,167.168 782.982,180.398C782.878,182.691 782.519,184.822 780.821,186.074C779.164,187.296 776.687,187.637 773.298,187.486C754.127,186.634 732.053,178.672 708.014,167.078C630.571,129.726 534.028,55.272 449.739,39.802C314.836,14.773 242.456,35.303 204.465,69.352C152.86,115.603 162.654,188.419 169.624,218.701C154.098,218.165 128.877,219.799 108.202,232.958C89.611,244.791 74.225,265.545 72.526,302.085C71.083,337.084 82.46,368.221 97.668,393.598C112.371,418.134 130.611,437.205 143.683,449.143C132.26,453.575 118.69,461.844 108.185,477.271C98.706,491.19 91.573,511.157 91.573,540C91.573,571.955 106.141,589.735 125.469,599.431C152.054,612.768 189.385,609.05 209.028,605.714C209.028,605.714 211.36,1080.05 211.36,1080.05L211.412,1090.66L232.624,1090.55Z"/>
            </g>
        </g>
    </g>
</svg>
